HIERARCHY
ROOT Hips
{
	OFFSET 0.000000 121.760803 0.000000
	CHANNELS 6 Xposition Yposition Zposition Xrotation Yrotation Zrotation 
	JOINT Spine
	{
		OFFSET 0.072000 7.257294 -0.789700
		CHANNELS 3 Xrotation Yrotation Zrotation
		JOINT Spine1
		{
			OFFSET 0.000000 12.508769 -0.658067
			CHANNELS 3 Xrotation Yrotation Zrotation
			JOINT Spine1_split
			{
				OFFSET 0.000000 12.508769 -0.658067
				CHANNELS 3 Xrotation Yrotation Zrotation
				JOINT Spine2
				{
					OFFSET 0.000000 12.508769 -0.658067
					CHANNELS 3 Xrotation Yrotation Zrotation
					JOINT Neck
					{
						OFFSET 0.000000 14.033295 7.520400
						CHANNELS 3 Xrotation Yrotation Zrotation
						JOINT Head
						{
							OFFSET 0.000000 8.198502 5.703100
							CHANNELS 3 Xrotation Yrotation Zrotation
							JOINT HeadTop_End
							{
								OFFSET 0.000000 17.760803 13.332701
								CHANNELS 3 Xrotation Yrotation Zrotation
								End Site
								{
									OFFSET 0.000000 0.000000 0.000000
								}
							}
						}
					}
					JOINT LeftShoulder
					{
						OFFSET 6.292450 5.785301 -0.669000
						CHANNELS 3 Xrotation Yrotation Zrotation
						JOINT LeftShoulder_split
						{
							OFFSET 6.292450 5.785301 -0.669000
							CHANNELS 3 Xrotation Yrotation Zrotation
							JOINT LeftArm
							{
								OFFSET 13.907140 -6.093903 1.965100
								CHANNELS 3 Xrotation Yrotation Zrotation
								JOINT LeftForeArm
								{
									OFFSET 34.140198 0.000000 0.000000
									CHANNELS 3 Xrotation Yrotation Zrotation
									JOINT LeftHand
									{
										OFFSET 40.960209 0.000000 0.000000
										CHANNELS 3 Xrotation Yrotation Zrotation
										JOINT LeftHandThumb1
										{
											OFFSET 10.006996 -7.170425 9.573125
											CHANNELS 3 Xrotation Yrotation Zrotation
											JOINT LeftHandThumb2
											{
												OFFSET 1.835007 -1.059448 1.059443
												CHANNELS 3 Xrotation Yrotation Zrotation
												JOINT LeftHandThumb3
												{
													OFFSET 2.112267 -1.219513 1.219518
													CHANNELS 3 Xrotation Yrotation Zrotation
													JOINT LeftHandThumb4
													{
														OFFSET 4.843811 -2.796570 2.796576
														CHANNELS 3 Xrotation Yrotation Zrotation
														End Site
														{
															OFFSET 0.000000 0.000000 0.000000
														}
													}
												}
											}
										}
										JOINT LeftHandIndex1
										{
											OFFSET 18.389847 -0.922348 4.596882
											CHANNELS 3 Xrotation Yrotation Zrotation
											JOINT LeftHandIndex2
											{
												OFFSET 4.711273 0.000000 0.000000
												CHANNELS 3 Xrotation Yrotation Zrotation
												JOINT LeftHandIndex3
												{
													OFFSET 2.886131 0.000000 0.000000
													CHANNELS 3 Xrotation Yrotation Zrotation
													JOINT LeftHandIndex4
													{
														OFFSET 6.145912 0.000000 0.000000
														CHANNELS 3 Xrotation Yrotation Zrotation
														End Site
														{
															OFFSET 0.000000 0.000000 0.000000
														}
													}
												}
											}
										}
										JOINT LeftHandMiddle1
										{
											OFFSET 18.013008 0.000000 0.000000
											CHANNELS 3 Xrotation Yrotation Zrotation
											JOINT LeftHandMiddle2
											{
												OFFSET 4.946693 0.000000 0.000000
												CHANNELS 3 Xrotation Yrotation Zrotation
												JOINT LeftHandMiddle3
												{
													OFFSET 3.342232 0.000000 0.000000
													CHANNELS 3 Xrotation Yrotation Zrotation
													JOINT LeftHandMiddle4
													{
														OFFSET 4.461754 0.000000 0.000000
														CHANNELS 3 Xrotation Yrotation Zrotation
														End Site
														{
															OFFSET 0.000000 0.000000 0.000000
														}
													}
												}
											}
										}
										JOINT LeftHandRing1
										{
											OFFSET 15.849892 -0.102921 -4.126150
											CHANNELS 3 Xrotation Yrotation Zrotation
											JOINT LeftHandRing2
											{
												OFFSET 3.527054 0.000000 0.000000
												CHANNELS 3 Xrotation Yrotation Zrotation
												JOINT LeftHandRing3
												{
													OFFSET 2.961098 0.000000 0.000000
													CHANNELS 3 Xrotation Yrotation Zrotation
													JOINT LeftHandRing4
													{
														OFFSET 4.927200 0.000000 0.000000
														CHANNELS 3 Xrotation Yrotation Zrotation
														End Site
														{
															OFFSET 0.000000 0.000000 0.000000
														}
													}
												}
											}
										}
										JOINT LeftHandPinky1
										{
											OFFSET 12.791824 -0.832031 -6.799156
											CHANNELS 3 Xrotation Yrotation Zrotation
											JOINT LeftHandPinky2
											{
												OFFSET 3.327133 0.000000 0.000000
												CHANNELS 3 Xrotation Yrotation Zrotation
												JOINT LeftHandPinky3
												{
													OFFSET 3.014900 0.000000 0.000000
													CHANNELS 3 Xrotation Yrotation Zrotation
													JOINT LeftHandPinky4
													{
														OFFSET 5.847786 0.000000 0.000000
														CHANNELS 3 Xrotation Yrotation Zrotation
														End Site
														{
															OFFSET 0.000000 0.000000 0.000000
														}
													}
												}
											}
										}
									}
								}
							}
						}
					}
					JOINT RightShoulder
					{
						OFFSET -6.292450 5.785301 -0.669000
						CHANNELS 3 Xrotation Yrotation Zrotation
						JOINT RightShoulder_split
						{
							OFFSET -6.292450 5.785301 -0.669000
							CHANNELS 3 Xrotation Yrotation Zrotation
							JOINT RightArm
							{
								OFFSET -13.907140 -6.093903 1.965100
								CHANNELS 3 Xrotation Yrotation Zrotation
								JOINT RightForeArm
								{
									OFFSET -34.140198 0.000000 0.000000
									CHANNELS 3 Xrotation Yrotation Zrotation
									JOINT RightHand
									{
										OFFSET -40.960209 0.000000 0.000000
										CHANNELS 3 Xrotation Yrotation Zrotation
										JOINT RightHandThumb1
										{
											OFFSET -10.007050 -7.170456 9.573117
											CHANNELS 3 Xrotation Yrotation Zrotation
											JOINT RightHandThumb2
											{
												OFFSET -1.835007 -1.059448 1.059443
												CHANNELS 3 Xrotation Yrotation Zrotation
												JOINT RightHandThumb3
												{
													OFFSET -2.112267 -1.219513 1.219518
													CHANNELS 3 Xrotation Yrotation Zrotation
													JOINT RightHandThumb4
													{
														OFFSET -4.843834 -2.796585 2.796590
														CHANNELS 3 Xrotation Yrotation Zrotation
														End Site
														{
															OFFSET 0.000000 0.000000 0.000000
														}
													}
												}
											}
										}
										JOINT RightHandIndex1
										{
											OFFSET -18.389870 -0.922424 4.596786
											CHANNELS 3 Xrotation Yrotation Zrotation
											JOINT RightHandIndex2
											{
												OFFSET -4.711273 0.000000 0.000000
												CHANNELS 3 Xrotation Yrotation Zrotation
												JOINT RightHandIndex3
												{
													OFFSET -2.886131 0.000000 0.000000
													CHANNELS 3 Xrotation Yrotation Zrotation
													JOINT RightHandIndex4
													{
														OFFSET -6.145920 0.000000 0.000000
														CHANNELS 3 Xrotation Yrotation Zrotation
														End Site
														{
															OFFSET 0.000000 0.000000 0.000000
														}
													}
												}
											}
										}
										JOINT RightHandMiddle1
										{
											OFFSET -18.013008 0.000000 0.000000
											CHANNELS 3 Xrotation Yrotation Zrotation
											JOINT RightHandMiddle2
											{
												OFFSET -4.946693 0.000000 0.000000
												CHANNELS 3 Xrotation Yrotation Zrotation
												JOINT RightHandMiddle3
												{
													OFFSET -3.342232 0.000000 0.000000
													CHANNELS 3 Xrotation Yrotation Zrotation
													JOINT RightHandMiddle4
													{
														OFFSET -4.461754 0.000000 0.000000
														CHANNELS 3 Xrotation Yrotation Zrotation
														End Site
														{
															OFFSET 0.000000 0.000000 0.000000
														}
													}
												}
											}
										}
										JOINT RightHandRing1
										{
											OFFSET -15.849876 -0.102936 -4.126237
											CHANNELS 3 Xrotation Yrotation Zrotation
											JOINT RightHandRing2
											{
												OFFSET -3.527054 0.000000 0.000000
												CHANNELS 3 Xrotation Yrotation Zrotation
												JOINT RightHandRing3
												{
													OFFSET -2.961098 0.000000 0.000000
													CHANNELS 3 Xrotation Yrotation Zrotation
													JOINT RightHandRing4
													{
														OFFSET -4.927200 0.000000 0.000000
														CHANNELS 3 Xrotation Yrotation Zrotation
														End Site
														{
															OFFSET 0.000000 0.000000 0.000000
														}
													}
												}
											}
										}
										JOINT RightHandPinky1
										{
											OFFSET -12.791786 -0.832077 -6.799222
											CHANNELS 3 Xrotation Yrotation Zrotation
											JOINT RightHandPinky2
											{
												OFFSET -3.327133 0.000000 0.000000
												CHANNELS 3 Xrotation Yrotation Zrotation
												JOINT RightHandPinky3
												{
													OFFSET -3.014900 0.000000 0.000000
													CHANNELS 3 Xrotation Yrotation Zrotation
													JOINT RightHandPinky4
													{
														OFFSET -5.847786 0.000000 0.000000
														CHANNELS 3 Xrotation Yrotation Zrotation
														End Site
														{
															OFFSET 0.000000 0.000000 0.000000
														}
													}
												}
											}
										}
									}
								}
							}
						}
					}
				}
			}
		}
	}
	JOINT LeftUpLeg
	{
		OFFSET 13.026900 -6.336304 -1.092800
		CHANNELS 3 Xrotation Yrotation Zrotation
		JOINT LeftLeg
		{
			OFFSET 0.524474 -46.096886 9.782700
			CHANNELS 3 Xrotation Yrotation Zrotation
			JOINT LeftFoot
			{
				OFFSET -0.524474 -53.427422 -12.948200
				CHANNELS 3 Xrotation Yrotation Zrotation
				JOINT LeftToeBase
				{
					OFFSET 0.192200 -14.009700 16.364100
					CHANNELS 3 Xrotation Yrotation Zrotation
					JOINT LeftToe_End
					{
						OFFSET -1.784700 -0.561700 9.474800
						CHANNELS 3 Xrotation Yrotation Zrotation
						End Site
						{
							OFFSET 0.000000 0.000000 0.000000
						}
					}
				}
			}
		}
	}
	JOINT RightUpLeg
	{
		OFFSET -12.883000 -6.336304 -1.092800
		CHANNELS 3 Xrotation Yrotation Zrotation
		JOINT RightLeg
		{
			OFFSET -0.524587 -46.096825 9.782800
			CHANNELS 3 Xrotation Yrotation Zrotation
			JOINT RightFoot
			{
				OFFSET 0.524587 -53.427383 -12.948300
				CHANNELS 3 Xrotation Yrotation Zrotation
				JOINT RightToeBase
				{
					OFFSET -0.192200 -14.009700 16.364100
					CHANNELS 3 Xrotation Yrotation Zrotation
					JOINT RightToe_End
					{
						OFFSET 1.784700 -0.561700 9.474800
						CHANNELS 3 Xrotation Yrotation Zrotation
						End Site
						{
							OFFSET 0.000000 0.000000 0.000000
						}
					}
				}
			}
		}
	}
}
MOTION
Frames: 4
Frame Time: 0.016667
8.144964 53.084595 -4.111708 1.583313 -32.045707 9.407743 3.576096 -2.622889 -4.626123 2.855674 -4.198785 -2.072992 0.000000 0.000000 0.000000 2.773302 -4.260251 -2.035175 0.447419 2.821363 2.164896 0.278335 15.546815 4.247280 0.000000 0.000001 -0.000001 1.530508 -0.690786 -2.366978 0.000000 0.000000 0.000000 -3.234532 -12.111238 -50.675359 -0.006008 -87.973301 -0.006287 -53.085067 20.313625 41.451872 -1.540052 3.690177 6.142363 3.939064 7.948713 0.746802 -0.579468 1.575001 2.538709 0.000000 -0.000000 -0.000000 1.016539 3.605829 -31.478682 1.016531 3.605846 -31.478709 0.193863 1.625530 -13.600720 0.000001 -0.000002 -0.000001 1.299289 4.030447 -35.722880 1.301537 4.033591 -35.755002 0.332602 2.118114 -17.846582 0.000000 0.000001 -0.000000 1.751611 4.592868 -41.733678 1.751596 4.592892 -41.733699 0.588570 2.790124 -23.818383 -0.000002 0.000004 -0.000003 4.911441 7.752511 -44.887880 2.046425 0.814396 -45.446979 0.761363 3.152214 -27.151597 -0.000003 -0.000001 0.000000 5.585471 17.928714 2.373359 0.000000 0.000000 0.000000 -33.414658 -16.065404 41.084636 -0.000613 92.810297 0.000719 44.885367 -28.255050 9.382484 -1.849256 -3.581796 -6.586143 4.637189 -8.634111 -0.225406 -1.273762 0.137312 -2.094866 -0.000000 -0.000000 0.000000 0.081186 -1.061617 8.746199 0.001256 -0.132372 1.086260 0.000002 0.002668 -0.021900 0.000001 0.000000 -0.000000 0.493225 -2.576624 21.670005 0.002550 -0.188682 1.548420 -0.000001 0.002672 -0.021898 -0.000001 -0.000001 0.000002 0.682834 -3.009790 25.559222 0.002549 -0.188685 1.548416 -0.000002 0.002678 -0.021894 0.000000 0.000002 0.000000 1.013757 -3.620335 31.277123 0.002550 -0.188682 1.548427 -0.000000 0.002678 -0.021883 -0.000001 -0.000000 0.000000 -79.735663 -17.322092 48.664036 72.281659 11.526670 -5.524481 33.146167 -0.014808 -12.238606 -0.003270 -0.000007 -0.002723 -0.000000 0.000002 0.000000 -23.897394 5.430006 -18.558389 107.234025 10.199413 -0.374274 26.926072 2.930809 21.672668 35.357618 -0.270054 -4.635828 -0.000002 -0.000001 -0.000001 
8.113003 53.083565 -4.128648 1.649700 -32.047254 9.478476 3.569467 -2.570281 -4.763137 2.844910 -4.152758 -2.149815 0.000000 0.000000 0.000000 2.768605 -4.212013 -2.111293 0.463157 2.837769 2.357654 0.012652 15.814931 4.562046 0.000001 0.000002 -0.000001 1.530165 -0.744390 -1.917310 0.000000 0.000000 0.000000 -3.271989 -12.105447 -51.033032 0.003390 -88.077311 0.003380 -52.890096 20.116154 41.398726 -1.540051 3.690183 6.142361 3.939062 7.948712 0.746802 -0.579466 1.575007 2.538707 0.000001 0.000001 -0.000000 1.016539 3.605839 -31.478689 1.016531 3.605846 -31.478713 0.193870 1.625527 -13.600721 -0.000003 0.000001 -0.000001 1.299293 4.030455 -35.722880 1.301538 4.033595 -35.755006 0.332610 2.118108 -17.846581 0.000002 0.000003 -0.000001 1.751614 4.592873 -41.733678 1.751606 4.592893 -41.733696 0.588563 2.790124 -23.818384 0.000002 0.000001 0.000000 4.911441 7.752513 -44.887877 2.046428 0.814389 -45.446972 0.761364 3.152214 -27.151600 -0.000001 0.000000 -0.000000 5.560241 17.956448 2.651589 0.000000 0.000000 0.000000 -32.494430 -15.150565 39.610299 -0.000451 94.692896 0.000538 40.622082 -28.211611 8.823197 -1.849255 -3.581794 -6.586141 4.637190 -8.634114 -0.225406 -1.273760 0.137311 -2.094867 -0.000000 -0.000000 0.000000 0.081137 -1.061264 8.743210 0.000151 -0.046014 0.377547 -0.000004 0.001002 -0.008214 -0.000000 -0.000000 -0.000001 0.505646 -2.607628 21.944571 0.000310 -0.065750 0.539482 0.000002 0.001001 -0.008215 0.000001 -0.000001 -0.000001 0.699980 -3.045334 25.883922 0.000308 -0.065741 0.539487 0.000003 0.001000 -0.008215 0.000000 0.000002 -0.000004 1.039065 -3.661590 31.675665 0.000312 -0.065737 0.539483 -0.000000 0.001008 -0.008209 0.000001 0.000000 -0.000001 -79.747021 -17.257619 48.745342 72.216478 11.522807 -5.579882 33.200948 0.056379 -12.205870 -0.003314 -0.000000 -0.002797 -0.000000 0.000001 -0.000000 -23.997725 5.447565 -18.515485 107.276310 10.177963 -0.370773 26.860247 2.895111 21.540518 35.441626 -0.265806 -4.601120 -0.000000 -0.000003 -0.000001 
8.078253 53.082230 -4.145812 1.721914 -32.041442 9.559376 3.556494 -2.526607 -4.898613 2.829097 -4.112360 -2.227856 0.000000 0.000000 0.000000 2.758115 -4.169720 -2.188756 0.482735 2.858639 2.531981 -0.284944 16.079350 4.861550 0.000000 -0.000001 0.000000 1.512195 -0.744082 -1.544892 0.000000 0.000000 0.000000 -3.279716 -12.155394 -51.329838 -0.002665 -88.114201 -0.002831 -52.731646 19.892617 41.299176 -1.540053 3.690181 6.142361 3.939064 7.948708 0.746802 -0.579468 1.575005 2.538709 0.000001 0.000003 -0.000002 1.016538 3.605837 -31.478689 1.016525 3.605851 -31.478709 0.193869 1.625530 -13.600720 0.000000 -0.000001 -0.000001 1.299289 4.030452 -35.722876 1.301539 4.033591 -35.755002 0.332608 2.118110 -17.846581 0.000001 0.000001 0.000000 1.751610 4.592877 -41.733682 1.751599 4.592894 -41.733696 0.588567 2.790124 -23.818383 0.000001 -0.000004 0.000002 4.911439 7.752513 -44.887880 2.046422 0.814390 -45.446972 0.761363 3.152216 -27.151597 0.000001 0.000001 -0.000002 5.540486 17.992971 2.918232 0.000000 0.000000 0.000000 -31.912894 -14.467693 38.297656 0.000672 96.455228 -0.000638 36.803105 -27.544602 9.079549 -1.849250 -3.581798 -6.586142 4.637189 -8.634114 -0.225406 -1.273759 0.137313 -2.094866 -0.000001 -0.000001 0.000000 0.081080 -1.060912 8.740252 0.000000 -0.003752 0.030857 -0.000000 -0.002748 0.022514 -0.000001 -0.000003 -0.000001 0.514998 -2.630691 22.149267 0.000002 -0.003845 0.031514 0.000001 -0.002740 0.022518 -0.000001 0.000001 0.000003 0.712896 -3.071774 26.125988 -0.000003 -0.003842 0.031515 0.000003 -0.002749 0.022514 -0.000000 0.000001 0.000002 1.058121 -3.692230 31.972775 0.000002 -0.003835 0.031526 0.000002 -0.002748 0.022515 -0.000000 -0.000000 -0.000000 -79.768905 -17.183429 48.821157 72.153770 11.523041 -5.635450 33.245577 0.097887 -12.168055 -0.003245 0.000006 -0.002702 0.000000 -0.000000 -0.000000 -24.099085 5.455219 -18.479902 107.312633 10.163990 -0.370313 26.813158 2.867469 21.434915 35.495185 -0.261172 -4.562439 -0.000003 -0.000002 -0.000002 
8.038464 53.082809 -4.163276 1.792448 -32.021822 9.640741 3.539771 -2.495167 -5.031724 2.810493 -4.080794 -2.306022 0.000000 0.000000 0.000000 2.744170 -4.136571 -2.266375 0.495815 2.875339 2.696918 -0.557784 16.320414 5.115393 0.000001 -0.000001 0.000000 1.480363 -0.701468 -1.238072 0.000000 0.000000 0.000000 -3.264498 -12.231472 -51.554319 -0.004344 -88.164799 -0.004212 -52.644079 19.692566 41.206162 -1.540052 3.690186 6.142361 3.939064 7.948709 0.746803 -0.579466 1.575006 2.538706 0.000000 -0.000000 0.000000 1.016538 3.605840 -31.478689 1.016529 3.605847 -31.478709 0.193866 1.625530 -13.600718 0.000003 0.000001 -0.000001 1.299290 4.030457 -35.722876 1.301538 4.033589 -35.755002 0.332612 2.118110 -17.846581 -0.000001 0.000001 -0.000002 1.751611 4.592875 -41.733678 1.751602 4.592890 -41.733699 0.588567 2.790121 -23.818381 0.000000 0.000002 -0.000002 4.911440 7.752514 -44.887877 2.046428 0.814392 -45.446976 0.761366 3.152214 -27.151595 -0.000000 -0.000000 -0.000003 5.526709 18.040678 3.182611 0.000000 0.000000 0.000000 -31.850934 -14.060278 37.299547 0.000343 98.091639 -0.000380 34.080260 -26.275763 10.628202 -1.849253 -3.581794 -6.586141 4.637189 -8.634117 -0.225407 -1.273758 0.137312 -2.094866 0.000000 -0.000001 -0.000000 0.081022 -1.060570 8.737473 0.000004 0.003389 -0.000060 0.000009 -0.008214 0.067369 -0.000001 -0.000002 -0.000000 0.521050 -2.645494 22.280712 0.000002 0.008588 -0.000032 0.000007 -0.008210 0.067372 -0.000002 0.000001 0.000002 0.721248 -3.088729 26.281439 0.000010 0.008586 -0.000109 0.000002 -0.008201 0.067375 0.000002 -0.000003 0.000002 1.070438 -3.711848 32.163586 0.000005 0.008584 0.000019 0.000006 -0.008212 0.067367 0.000002 -0.000003 -0.000004 -79.786336 -17.112692 48.892290 72.093248 11.527897 -5.703588 33.279960 0.106919 -12.127268 -0.003210 0.000002 -0.002691 0.000000 -0.000001 -0.000000 -24.190454 5.440971 -18.449579 107.336047 10.149792 -0.374865 26.790741 2.849926 21.358294 35.514446 -0.256610 -4.523346 -0.000002 -0.000002 -0.000001 
